<svg width="30" height="30" viewBox="0 0 30 30" fill="none" xmlns="http://www.w3.org/2000/svg">
<mask id="mask0_37_955" style="mask-type:alpha" maskUnits="userSpaceOnUse" x="0" y="0" width="30" height="30">
<rect width="30" height="30" fill="#D9D9D9"/>
</mask>
<g mask="url(#mask0_37_955)">
<path d="M7.5 27.5C6.8125 27.5 6.22396 27.2552 5.73438 26.7656C5.24479 26.276 5 25.6875 5 25V5C5 4.3125 5.24479 3.72396 5.73438 3.23438C6.22396 2.74479 6.8125 2.5 7.5 2.5H22.5C23.1875 2.5 23.776 2.74479 24.2656 3.23438C24.7552 3.72396 25 4.3125 25 5V25C25 25.6875 24.7552 26.276 24.2656 26.7656C23.776 27.2552 23.1875 27.5 22.5 27.5H7.5ZM13.75 13.75L16.875 11.875L20 13.75V5H13.75V13.75Z" fill="white"/>
</g>
</svg>
