<svg width="30" height="30" viewBox="0 0 30 30" fill="none" xmlns="http://www.w3.org/2000/svg">
<path d="M14.75 18.125C13.7083 18.125 12.8229 17.7604 12.0938 17.0312C11.3646 16.3021 11 15.4167 11 14.375V6.875C11 5.83333 11.3646 4.94792 12.0938 4.21875C12.8229 3.48958 13.7083 3.125 14.75 3.125C15.7917 3.125 16.6771 3.48958 17.4062 4.21875C18.1354 4.94792 18.5 5.83333 18.5 6.875V14.375C18.5 15.4167 18.1354 16.3021 17.4062 17.0312C16.6771 17.7604 15.7917 18.125 14.75 18.125ZM13.5 26.875V23.0312C11.3333 22.7396 9.54167 21.7708 8.125 20.125C6.70833 18.4792 6 16.5625 6 14.375H8.5C8.5 16.1042 9.10938 17.5781 10.3281 18.7969C11.5469 20.0156 13.0208 20.625 14.75 20.625C16.4792 20.625 17.9531 20.0156 19.1719 18.7969C20.3906 17.5781 21 16.1042 21 14.375H23.5C23.5 16.5625 22.7917 18.4792 21.375 20.125C19.9583 21.7708 18.1667 22.7396 16 23.0312V26.875H13.5Z" fill="white"/>
</svg>
