<svg width="30" height="30" viewBox="0 0 30 30" fill="none" xmlns="http://www.w3.org/2000/svg">
<mask id="mask0_37_961" style="mask-type:alpha" maskUnits="userSpaceOnUse" x="0" y="0" width="30" height="30">
<rect width="30" height="30" fill="#D9D9D9"/>
</mask>
<g mask="url(#mask0_37_961)">
<path d="M8.75 20C9.10417 20 9.40104 19.8802 9.64062 19.6406C9.88021 19.401 10 19.1042 10 18.75C10 18.3958 9.88021 18.099 9.64062 17.8594C9.40104 17.6198 9.10417 17.5 8.75 17.5C8.39583 17.5 8.09896 17.6198 7.85938 17.8594C7.61979 18.099 7.5 18.3958 7.5 18.75C7.5 19.1042 7.61979 19.401 7.85938 19.6406C8.09896 19.8802 8.39583 20 8.75 20ZM7.5 16.25H10V10H7.5V16.25ZM12.5 18.75H22.5V16.25H12.5V18.75ZM12.5 13.75H22.5V11.25H12.5V13.75ZM5 25C4.3125 25 3.72396 24.7552 3.23438 24.2656C2.74479 23.776 2.5 23.1875 2.5 22.5V7.5C2.5 6.8125 2.74479 6.22396 3.23438 5.73438C3.72396 5.24479 4.3125 5 5 5H25C25.6875 5 26.276 5.24479 26.7656 5.73438C27.2552 6.22396 27.5 6.8125 27.5 7.5V22.5C27.5 23.1875 27.2552 23.776 26.7656 24.2656C26.276 24.7552 25.6875 25 25 25H5Z" fill="white"/>
</g>
</svg>
